<?xml version="1.0" encoding="utf-8"?>
<!-- Generator: Adobe Illustrator 18.1.1, SVG Export Plug-In . SVG Version: 6.00 Build 0)  -->
<svg version="1.1" xmlns="http://www.w3.org/2000/svg" xmlns:xlink="http://www.w3.org/1999/xlink" x="0px" y="0px"
	 viewBox="0 0 468 132.5" enable-background="new 0 0 468 132.5" xml:space="preserve">
<g id="old_tree" display="none">
	<g display="inline">
		
			<path fill="#F6766D" stroke="#000000" stroke-width="1.07" stroke-linecap="round" stroke-linejoin="round" stroke-miterlimit="10" d="
			M193.6,315.3h82.6 M193.6,298.3h82.6 M111,332.2h165.2 M193.6,281.4h82.6 M193.6,264.4h82.6 M193.6,247.5h82.6 M193.6,230.5h82.6
			 M28.4,287.7L28.4,287.7 M28.4,319.5H111 M111,306.8h82.6 M104.5,256h6.5 M28.4,256h76.1 M111,272.9h82.6 M111,239h82.6
			 M193.6,306.8v8.5 M193.6,306.8v-8.5 M111,319.5v12.7 M193.6,272.9v8.5 M193.6,272.9v-8.5 M193.6,239v8.5 M193.6,239v-8.5
			 M28.4,287.7L28.4,287.7 M28.4,287.7v31.8 M111,319.5v-12.7 M28.4,287.7V256 M111,256v16.9 M111,256v-17"/>
	</g>
</g>
<g id="Layer_1">
	<text transform="matrix(1 0 0 1 302.3726 114.3134)" fill="#999999" font-family="'Helvetica'" font-size="8">Species A</text>
	<text transform="matrix(1 0 0 1 302.3726 130.0831)" fill="#999999" font-family="'Helvetica'" font-size="8">Species C</text>
	<text transform="matrix(1 0 0 1 302.3726 97.3603)" fill="#999999" font-family="'Helvetica'" font-size="8">Species B</text>
	<text transform="matrix(1 0 0 1 302.3726 80.417)" fill="#999999" font-family="'Helvetica'" font-size="8">Species A</text>
	<text transform="matrix(1 0 0 1 302.3726 63.4541)" fill="#999999" font-family="'Helvetica'" font-size="8">Species B</text>
	<text transform="matrix(1 0 0 1 302.3726 46.5166)" fill="#999999" font-family="'Helvetica'" font-size="8">Species C</text>
	<text transform="matrix(1 0 0 1 302.3726 29.5634)" fill="#999999" font-family="'Helvetica'" font-size="8">Species C</text>
	<text transform="matrix(1 0 0 1 235.7918 7.9262)"><tspan x="0" y="0" font-family="'Helvetica-Bold'" font-size="10">(b) </tspan><tspan x="15.5" y="0" font-family="'Helvetica'" font-size="9">Phylogenetic independent contrasts</tspan></text>
	
		<line stroke="#00BEC3" stroke-width="1.07" stroke-linecap="round" stroke-linejoin="round" stroke-miterlimit="10" x1="295.1" y1="93.1" x2="280.8" y2="93.1"/>
	
		<line stroke="#00BEC3" stroke-width="1.07" stroke-linecap="round" stroke-linejoin="round" stroke-miterlimit="10" x1="280.8" y1="93.1" x2="280.8" y2="110"/>
	
		<line stroke="#00BEC3" stroke-width="1.07" stroke-linecap="round" stroke-linejoin="round" stroke-miterlimit="10" x1="280.8" y1="110" x2="295.1" y2="110"/>
	
		<line stroke="#00BEC3" stroke-width="1.07" stroke-linecap="round" stroke-linejoin="round" stroke-miterlimit="10" x1="252.9" y1="127.3" x2="295.1" y2="127.3"/>
	
		<line stroke="#00BEC3" stroke-width="1.07" stroke-linecap="round" stroke-linejoin="round" stroke-miterlimit="10" x1="252.9" y1="101.9" x2="252.9" y2="127.3"/>
	
		<line stroke="#00BEC3" stroke-width="1.07" stroke-linecap="round" stroke-linejoin="round" stroke-miterlimit="10" x1="274.4" y1="68" x2="252.9" y2="68"/>
	
		<line stroke="#00BEC3" stroke-width="1.07" stroke-linecap="round" stroke-linejoin="round" stroke-miterlimit="10" x1="252.9" y1="68" x2="252.9" y2="34.1"/>
	
		<line stroke="#00BEC3" stroke-width="1.07" stroke-linecap="round" stroke-linejoin="round" stroke-miterlimit="10" x1="252.9" y1="34.1" x2="266.7" y2="34.1"/>
	
		<line fill="#00BEC3" stroke="#F6766D" stroke-width="1.07" stroke-linecap="round" stroke-linejoin="round" stroke-miterlimit="10" x1="252.9" y1="51" x2="238" y2="51"/>
	
		<line stroke="#F6766D" stroke-width="1.07" stroke-linecap="round" stroke-linejoin="round" stroke-miterlimit="10" x1="238" y1="51" x2="238" y2="114.6"/>
	
		<line stroke="#F6766D" stroke-width="1.07" stroke-linecap="round" stroke-linejoin="round" stroke-miterlimit="10" x1="238" y1="114.6" x2="252.9" y2="114.6"/>
	
		<line stroke="#F6766D" stroke-width="1.07" stroke-linecap="round" stroke-linejoin="round" stroke-miterlimit="10" x1="295.1" y1="25.6" x2="266.7" y2="25.6"/>
	
		<line stroke="#F6766D" stroke-width="1.07" stroke-linecap="round" stroke-linejoin="round" stroke-miterlimit="10" x1="266.7" y1="25.6" x2="266.7" y2="42.6"/>
	
		<line stroke="#F6766D" stroke-width="1.07" stroke-linecap="round" stroke-linejoin="round" stroke-miterlimit="10" x1="266.7" y1="42.6" x2="295.1" y2="42.6"/>
	
		<line stroke="#00BEC3" stroke-width="1.07" stroke-linecap="round" stroke-linejoin="round" stroke-miterlimit="10" x1="295.1" y1="59.5" x2="274.4" y2="59.5"/>
	
		<line stroke="#00BEC3" stroke-width="1.07" stroke-linecap="round" stroke-linejoin="round" stroke-miterlimit="10" x1="274.4" y1="59.5" x2="274.4" y2="76.5"/>
	
		<line stroke="#00BEC3" stroke-width="1.07" stroke-linecap="round" stroke-linejoin="round" stroke-miterlimit="10" x1="274.4" y1="76.5" x2="295.1" y2="76.5"/>
	
		<line stroke="#00BEC3" stroke-width="1.07" stroke-linecap="round" stroke-linejoin="round" stroke-miterlimit="10" x1="252.9" y1="101.9" x2="280.8" y2="101.9"/>
	<g>
		<g>
			<path fill="none" stroke="#F6766D" stroke-width="0.5" stroke-miterlimit="10" d="M288.5,39.4c-7-0.7-18.4-2.9-18.4-5.4
				c0-2.5,11.4-4.6,18.4-5.4"/>
			<g>
				<path fill="#F6766D" d="M287.6,39.3l-1.2,1.7l0.1,0l3-0.9c1-0.1,2.1-0.3,3.1-0.4c-1-0.3-2-0.6-3-0.9l-2.8-1.4l-0.1,0L287.6,39.3
					z"/>
			</g>
			<g>
				<path fill="#F6766D" d="M287.6,28.8l-1.2-1.7l0.1,0l3,0.9c1,0.1,2.1,0.3,3.1,0.4c-1,0.3-2,0.6-3,0.9l-2.8,1.4l-0.1,0L287.6,28.8
					z"/>
			</g>
		</g>
	</g>
	<g>
		<g>
			<path fill="none" stroke="#F6766D" stroke-width="0.5" stroke-miterlimit="10" d="M246.7,109.9c-6.1-3-5-14.1-5-27.3
				c0-13.2-1.3-24.3,4.9-27.3"/>
			<g>
				<path fill="#F6766D" d="M245.8,109.5l-1.5,1.5l0,0.1l3.1-0.4c1,0,2.1,0.1,3.1,0.1c-0.9-0.5-1.9-1-2.8-1.4l-2.6-1.9l-0.1,0
					L245.8,109.5z"/>
			</g>
			<g>
				<path fill="#F6766D" d="M245.8,55.7l-1.5-1.5l0-0.1l3.1,0.4c1,0,2.1-0.1,3.1-0.1c-0.9,0.5-1.9,0.9-2.8,1.4l-2.6,1.9l-0.1,0
					L245.8,55.7z"/>
			</g>
		</g>
	</g>
	<g>
		<g>
			<path fill="none" stroke="#00BEC3" stroke-width="0.5" stroke-miterlimit="10" d="M288.4,73.6c-8.5-0.5-10.7-2.8-10.7-5.5
				c0-2.7,1.8-5,10.7-5.5"/>
			<g>
				<path fill="#00BEC3" d="M287.6,73.5l-1.2,1.8l0.1,0l3-1.1c1-0.2,2.1-0.4,3.1-0.6c-1-0.3-2-0.5-3-0.8l-2.9-1.3l-0.1,0L287.6,73.5
					z"/>
			</g>
			<g>
				<path fill="#00BEC3" d="M287.6,62.6l-1.2-1.8l0.1,0l3,1.1c1,0.2,2.1,0.4,3.1,0.6c-1,0.3-2,0.5-3,0.8l-2.9,1.3l-0.1,0L287.6,62.6
					z"/>
			</g>
		</g>
	</g>
	<g>
		<g>
			<path fill="none" stroke="#00BEC3" stroke-width="0.5" stroke-miterlimit="10" d="M364.3,58.7c-13.5-0.3-17-1.9-17-3.8
				c0-2,2.8-3.6,17-3.8"/>
			<g>
				<path fill="#00BEC3" d="M363.5,58.5l-1.1,1.8l0.1,0l3-1.1c1-0.2,2.1-0.4,3.1-0.6c-1-0.3-2-0.5-3-0.8l-2.9-1.3l-0.1,0L363.5,58.5
					z"/>
			</g>
			<g>
				<path fill="#00BEC3" d="M363.5,51.1l-1.1-1.8l0.1,0l3,1.1c1,0.2,2.1,0.4,3.1,0.6c-1,0.3-2,0.5-3,0.8l-2.9,1.2l-0.1,0L363.5,51.1
					z"/>
			</g>
		</g>
	</g>
	<g>
		<g>
			<path fill="none" stroke="#00BEC3" stroke-width="0.5" stroke-miterlimit="10" d="M267.3,64.4c-8.2-1.3-11.5-6.9-11.5-13.6
				c0-6,0-11.2,3.8-13.1"/>
			<g>
				<path fill="#00BEC3" d="M266.4,64.2l-1.3,1.7l0.1,0l3-0.9c1-0.1,2.1-0.3,3.1-0.4c-1-0.3-2-0.6-3-1l-2.8-1.4l-0.1,0L266.4,64.2z"
					/>
			</g>
			<g>
				<path fill="#00BEC3" d="M258.9,38.1l-1.5-1.5l0-0.1l3.1,0.4c1,0,2.1-0.1,3.1-0.1c-0.9,0.5-1.9,1-2.8,1.4l-2.5,1.9l-0.1,0
					L258.9,38.1z"/>
			</g>
		</g>
	</g>
	<g>
		<g>
			<path fill="none" stroke="#00BEC3" stroke-width="0.5" stroke-miterlimit="10" d="M288.5,107.5c-4.4-0.7-4.3-2.9-4.3-5.4
				c0-2.5,0-4.6,4.3-5.3"/>
			<g>
				<path fill="#00BEC3" d="M287.6,107.4l-1.2,1.7l0.1,0l3-0.9c1-0.1,2.1-0.3,3.1-0.4c-1-0.3-2-0.6-3-0.9l-2.8-1.4l-0.1,0
					L287.6,107.4z"/>
			</g>
			<g>
				<path fill="#00BEC3" d="M287.6,97l-1.3-1.7l0.1,0l3,0.9c1,0.1,2.1,0.3,3.1,0.4c-1,0.3-2,0.6-3,1l-2.8,1.4l-0.1,0L287.6,97z"/>
			</g>
		</g>
	</g>
	<g>
		<g>
			<path fill="none" stroke="#00BEC3" stroke-width="0.5" stroke-miterlimit="10" d="M288.5,124.8c-17.1-0.6-31.5-4.7-31.5-9.8
				c0-4.8,6.1-8.9,16.8-9.7"/>
			<g>
				<path fill="#00BEC3" d="M287.6,124.7l-1.1,1.8l0.1,0l3-1.1c1-0.2,2.1-0.4,3.1-0.6c-1-0.3-2-0.5-3-0.8l-2.9-1.3l-0.1,0
					L287.6,124.7z"/>
			</g>
			<g>
				<path fill="#00BEC3" d="M272.9,105.4l-1.2-1.8l0.1,0l3,1c1,0.2,2.1,0.4,3.1,0.5c-1,0.3-2,0.5-3,0.8l-2.9,1.3l-0.1,0L272.9,105.4
					z"/>
			</g>
		</g>
	</g>
	<path fill="none" stroke="#F6766D" stroke-width="0.5" stroke-miterlimit="10" d="M101.6,23.8c8.6,0,17.7,3.5,17.7,7.9
		s-9.2,7.6-17.7,7.6"/>
	<text transform="matrix(1 0 0 1 348.6043 28.1007)"><tspan x="0" y="0" font-family="'Helvetica'" font-size="7">The same example tree has 6 </tspan><tspan x="0" y="8.4" font-family="'Helvetica'" font-size="7">independent contrasts:</tspan></text>
	<text transform="matrix(1 0 0 1 377.2709 52.4441)"><tspan x="0" y="0" font-family="'Helvetica'" font-size="7">4 contrasts arising from </tspan><tspan x="0" y="8.4" font-family="'Helvetica'" font-size="7">speciation nodes</tspan></text>
	<g>
		<g>
			<path fill="none" stroke="#F6766D" stroke-width="0.5" stroke-miterlimit="10" d="M364.3,78.5c-13.5-0.3-17-1.9-17-3.8
				c0-2,2.8-3.6,17-3.8"/>
			<g>
				<path fill="#F6766D" d="M363.5,78.4l-1.1,1.8l0.1,0l3-1.1c1-0.2,2.1-0.4,3.1-0.6c-1-0.3-2-0.5-3-0.8l-2.9-1.3l-0.1,0L363.5,78.4
					z"/>
			</g>
			<g>
				<path fill="#F6766D" d="M363.5,71l-1.1-1.8l0.1,0l3,1.1c1,0.2,2.1,0.4,3.1,0.6c-1,0.3-2,0.5-3.1,0.8l-2.9,1.2l-0.1,0L363.5,71z"
					/>
			</g>
		</g>
	</g>
	<text transform="matrix(0.9562 0 0 1 377.271 72.6085)"><tspan x="0" y="0" font-family="'Helvetica'" font-size="7.3209">2 contrasts arising from </tspan><tspan x="0" y="8.8" font-family="'Helvetica'" font-size="7.3209">duplication nodes</tspan></text>
	<path fill="none" stroke="#00BEC3" stroke-width="0.5" stroke-miterlimit="10" d="M101.6,23.8c8.6,0,17.7,7.3,17.7,16.4
		s-9.2,16.4-17.7,16.4"/>
	<path fill="none" stroke="#00BEC3" stroke-width="0.5" stroke-miterlimit="10" d="M101.6,23.8c8.6,0,17.7,11.1,17.7,24.8
		s-9.2,25-17.7,25"/>
	<path fill="none" stroke="#F6766D" stroke-width="0.5" stroke-miterlimit="10" d="M101.6,23.8c8.6,0,17.7,14.9,17.7,33.2
		s-9.2,33.5-17.7,33.5"/>
	<path fill="none" stroke="#F6766D" stroke-width="0.5" stroke-miterlimit="10" d="M101.6,23.8c8.6,0,17.7,18.6,17.7,41.5
		s-9.2,41.3-17.7,41.3"/>
	<path fill="none" stroke="#F6766D" stroke-width="0.5" stroke-miterlimit="10" d="M101.6,23.8c8.6,0,17.7,22.3,17.7,49.8
		s-9.2,49.6-17.7,49.6"/>
	<path fill="none" stroke="#00BEC3" stroke-width="0.5" stroke-miterlimit="10" d="M101.6,39.3c6.1,0,14.5,3.6,14.5,8.4
		s-8.4,8.8-14.5,8.8"/>
	<path fill="none" stroke="#00BEC3" stroke-width="0.5" stroke-miterlimit="10" d="M101.6,56.5c4.7,0,11.8,3.9,11.8,8.7
		s-7.2,8.4-11.8,8.4"/>
	<path fill="none" stroke="#00BEC3" stroke-width="0.5" stroke-miterlimit="10" d="M101.6,39.3c6.1,0,14.5,7.5,14.5,17.1
		s-8.4,17.2-14.5,17.2"/>
	<path fill="none" stroke="#F6766D" stroke-width="0.5" stroke-miterlimit="10" d="M101.6,39.3c6.1,0,14.5,11.3,14.5,25.4
		s-8.4,25.8-14.5,25.8"/>
	<path fill="none" stroke="#F6766D" stroke-width="0.5" stroke-miterlimit="10" d="M101.6,39.3c6.1,0,14.5,15.3,14.5,33.8
		s-8.4,33.5-14.5,33.5"/>
	<path fill="none" stroke="#F6766D" stroke-width="0.5" stroke-miterlimit="10" d="M101.6,39.3c6.1,0,14.5,19.1,14.5,42.2
		s-8.4,41.7-14.5,41.7"/>
	<path fill="none" stroke="#F6766D" stroke-width="0.5" stroke-miterlimit="10" d="M101.6,56.5c4.7,0,11.8,7.9,11.8,17.1
		s-7.2,16.8-11.8,16.8"/>
	<path fill="none" stroke="#F6766D" stroke-width="0.5" stroke-miterlimit="10" d="M101.6,56.5c4.7,0,11.8,11.1,11.8,25
		s-7.2,25-11.8,25"/>
	<path fill="none" stroke="#F6766D" stroke-width="0.5" stroke-miterlimit="10" d="M101.6,56.5c4.7,0,11.8,14.8,11.8,33.2
		s-7.2,33.4-11.8,33.4"/>
	<path fill="none" stroke="#F6766D" stroke-width="0.5" stroke-miterlimit="10" d="M101.6,73.6c3.1,0,8.5,3.9,8.5,8.5
		c0,4.6-5.4,8.4-8.5,8.4"/>
	<path fill="none" stroke="#F6766D" stroke-width="0.5" stroke-miterlimit="10" d="M101.6,73.6c3.1,0,8.5,7.6,8.5,16.7
		s-5.4,16.3-8.5,16.3"/>
	<path fill="none" stroke="#F6766D" stroke-width="0.5" stroke-miterlimit="10" d="M101.6,73.6c3.1,0,8.5,11.6,8.5,25.3
		s-5.4,24.4-8.5,24.4"/>
	<path fill="none" stroke="#00BEC3" stroke-width="0.5" stroke-miterlimit="10" d="M101.6,90.5c2,0,5.9,3.9,5.9,8.3
		c0,4.4-3.9,7.8-5.9,7.8"/>
	<path fill="none" stroke="#00BEC3" stroke-width="0.5" stroke-miterlimit="10" d="M101.6,90.5c2,0,5.9,7.7,5.9,16.8
		s-3.9,15.9-5.9,15.9"/>
	<path fill="none" stroke="#00BEC3" stroke-width="0.5" stroke-miterlimit="10" d="M101.6,106.6c1,0,3.3,3.1,3.3,7.5
		c0,4.4-2.3,9.1-3.3,9.1"/>
	<text transform="matrix(1 0 0 1 130.2196 26.9344)"><tspan x="0" y="0" font-family="'Helvetica'" font-size="7">This example tree has 21 </tspan><tspan x="0" y="8.4" font-family="'Helvetica'" font-size="7">nonindependent pairwise </tspan><tspan x="0" y="16.8" font-family="'Helvetica'" font-size="7">comaprisons:</tspan></text>
	<text transform="matrix(1 0 0 1 144.3411 54.1351)"><tspan x="0" y="0" font-family="'Helvetica'" font-size="7">8 pairwise comparisons </tspan><tspan x="0" y="8.4" font-family="'Helvetica'" font-size="7">between </tspan><tspan x="28.4" y="8.4" fill="#00BEC3" font-family="'Helvetica'" font-size="7">orthologs</tspan><tspan x="57.2" y="8.4" font-family="'Helvetica'" font-size="7"> </tspan></text>
	<text transform="matrix(0.9562 0 0 1 144.3412 78.0664)"><tspan x="0" y="0" font-family="'Helvetica'" font-size="7.3209">13 pairwise comparisons </tspan><tspan x="0" y="8.8" font-family="'Helvetica'" font-size="7.3209">between </tspan><tspan x="29.7" y="8.8" fill="#F6766D" font-family="'Helvetica'" font-size="7.3209">paralogs</tspan></text>
	<path fill="none" stroke="#00BEC3" stroke-width="0.5" stroke-miterlimit="10" d="M132,50.7c2.8,0,8.1,2.3,8.1,4.8
		c0,2.6-5.3,4.5-8.1,4.5"/>
	<path fill="none" stroke="#F6766D" stroke-width="0.5" stroke-miterlimit="10" d="M132,71.6c2.8,0,8.1,2.3,8.1,4.8
		c0,2.6-5.3,4.5-8.1,4.5"/>
	<text transform="matrix(1 0 0 1 146.6972 101.8267)" font-family="'Helvetica'" font-size="7">Speciation event</text>
	<text transform="matrix(1 0 0 1 146.6124 114.3267)" font-family="'Helvetica'" font-size="7">Duplication event</text>
	<text transform="matrix(1 0 0 1 6.1444 7.9262)"><tspan x="0" y="0" font-family="'Helvetica-Bold'" font-size="10">(a)</tspan><tspan x="12.2" y="0" font-family="'Helvetica'" font-size="10"> Pairwise comparisons</tspan></text>
</g>
<g id="Layer_6" display="none">
	<text transform="matrix(1 0 0 1 7.4422 257.4243)" display="inline"><tspan x="0" y="0" font-family="'Helvetica-Oblique'" font-size="7">KMRR found lower covariance between paralog expression than </tspan><tspan x="0" y="8.4" font-family="'Helvetica-Oblique'" font-size="7">orthologs expression. This was interpretted to indicate more change </tspan><tspan x="0" y="16.8" font-family="'Helvetica-Oblique'" font-size="7">in expression following duplication than speciation, and as support </tspan><tspan x="0" y="25.2" font-family="'Helvetica-Oblique'" font-size="7">for the ortholog conjecture. </tspan></text>
	<text transform="matrix(1 0 0 1 237.9422 251.3085)" display="inline"><tspan x="0" y="0" font-family="'Helvetica-Oblique'" font-size="7">We reanalyzed the KMRR study with independent contrasts, which </tspan><tspan x="0" y="8.4" font-family="'Helvetica-Oblique'" font-size="7">isolate changes following duplication and speciation and do not </tspan><tspan x="0" y="16.8" font-family="'Helvetica-Oblique'" font-size="7">count changes along the same branches multiple times. These </tspan><tspan x="0" y="25.2" font-family="'Helvetica-Oblique'" font-size="7">reanalyses do not reject the null that the rate of change in expression </tspan><tspan x="0" y="33.6" font-family="'Helvetica-Oblique'" font-size="7">following duplication is the same as that after speciation (Wilcoxon p=1). </tspan></text>
</g>
<g id="formulae">
</g>
<g id="nodes">
	<path fill="#F6766D" d="M240.8,82.8c0-1.5-1.2-2.8-2.8-2.8c-1.5,0-2.8,1.3-2.8,2.8c0,1.5,1.2,2.8,2.8,2.8
		C239.5,85.5,240.8,84.3,240.8,82.8"/>
	<path fill="#F6766D" d="M269.4,33.3c0-1.5-1.2-2.8-2.8-2.8s-2.8,1.2-2.8,2.8c0,1.5,1.2,2.8,2.8,2.8S269.4,34.9,269.4,33.3"/>
	<path fill="#999999" d="M297.9,25.6c0-1.5-1.2-2.8-2.8-2.8s-2.8,1.2-2.8,2.8c0,1.5,1.2,2.8,2.8,2.8S297.9,27.1,297.9,25.6"/>
	<path fill="#999999" d="M297.9,42.5c0-1.5-1.2-2.8-2.8-2.8s-2.8,1.2-2.8,2.8s1.2,2.8,2.8,2.8S297.9,44.1,297.9,42.5"/>
	<path fill="#999999" d="M297.9,59.5c0-1.5-1.2-2.8-2.8-2.8s-2.8,1.2-2.8,2.8s1.2,2.8,2.8,2.8S297.9,61,297.9,59.5"/>
	<path fill="#999999" d="M297.9,76.5c0-1.5-1.2-2.8-2.8-2.8s-2.8,1.2-2.8,2.8c0,1.5,1.2,2.8,2.8,2.8S297.9,78,297.9,76.5"/>
	<path fill="#999999" d="M297.9,93.1c0-1.5-1.2-2.8-2.8-2.8s-2.8,1.2-2.8,2.8c0,1.5,1.2,2.8,2.8,2.8S297.9,94.6,297.9,93.1"/>
	<path fill="#999999" d="M297.9,110c0-1.5-1.2-2.8-2.8-2.8s-2.8,1.2-2.8,2.8c0,1.5,1.2,2.8,2.8,2.8S297.9,111.6,297.9,110"/>
	<path fill="#999999" d="M297.9,127.3c0-1.5-1.2-2.8-2.8-2.8s-2.8,1.2-2.8,2.8c0,1.5,1.2,2.8,2.8,2.8S297.9,128.8,297.9,127.3"/>
	<path fill="#00BEC3" d="M255.7,114.6c0-1.5-1.2-2.8-2.8-2.8s-2.8,1.2-2.8,2.8c0,1.5,1.2,2.8,2.8,2.8S255.7,116.1,255.7,114.6"/>
	<path fill="#00BEC3" d="M283.6,101.9c0-1.5-1.2-2.8-2.8-2.8c-1.5,0-2.8,1.2-2.8,2.8c0,1.5,1.2,2.8,2.8,2.8
		C282.3,104.6,283.6,103.4,283.6,101.9"/>
	<path fill="#00BEC3" d="M255.7,51c0-1.5-1.2-2.8-2.8-2.8s-2.8,1.2-2.8,2.8c0,1.5,1.2,2.8,2.8,2.8S255.7,52.5,255.7,51"/>
	<path fill="#00BEC3" d="M277.1,68c0-1.5-1.2-2.8-2.8-2.8c-1.5,0-2.8,1.2-2.8,2.8c0,1.5,1.2,2.8,2.8,2.8
		C275.9,70.8,277.1,69.5,277.1,68"/>
	<text transform="matrix(1 0 0 1 63.5949 108.4693)" fill="#999999" font-family="'Helvetica'" font-size="8">Species A</text>
	<text transform="matrix(1 0 0 1 63.5952 125.66)" fill="#999999" font-family="'Helvetica'" font-size="8">Species C</text>
	<text transform="matrix(1 0 0 1 63.5949 91.5162)" fill="#999999" font-family="'Helvetica'" font-size="8">Species B</text>
	<text transform="matrix(1 0 0 1 63.5949 74.5728)" fill="#999999" font-family="'Helvetica'" font-size="8">Species A</text>
	<text transform="matrix(1 0 0 1 63.5949 57.61)" fill="#999999" font-family="'Helvetica'" font-size="8">Species B</text>
	<text transform="matrix(1 0 0 1 63.5949 40.6725)" fill="#999999" font-family="'Helvetica'" font-size="8">Species C</text>
	<text transform="matrix(1 0 0 1 63.5949 23.7193)" fill="#999999" font-family="'Helvetica'" font-size="8">Species C</text>
	
		<line stroke="#00BEC3" stroke-width="1.07" stroke-linecap="round" stroke-linejoin="round" stroke-miterlimit="10" x1="59.9" y1="88.7" x2="45.6" y2="88.7"/>
	
		<line stroke="#00BEC3" stroke-width="1.07" stroke-linecap="round" stroke-linejoin="round" stroke-miterlimit="10" x1="45.6" y1="88.7" x2="45.6" y2="105.6"/>
	
		<line stroke="#00BEC3" stroke-width="1.07" stroke-linecap="round" stroke-linejoin="round" stroke-miterlimit="10" x1="45.6" y1="105.6" x2="59.9" y2="105.6"/>
	
		<line stroke="#00BEC3" stroke-width="1.07" stroke-linecap="round" stroke-linejoin="round" stroke-miterlimit="10" x1="17.6" y1="122.9" x2="59.9" y2="122.9"/>
	
		<line stroke="#00BEC3" stroke-width="1.07" stroke-linecap="round" stroke-linejoin="round" stroke-miterlimit="10" x1="17.6" y1="97.5" x2="17.6" y2="122.9"/>
	
		<line stroke="#00BEC3" stroke-width="1.07" stroke-linecap="round" stroke-linejoin="round" stroke-miterlimit="10" x1="39.1" y1="63.6" x2="17.6" y2="63.6"/>
	
		<line stroke="#00BEC3" stroke-width="1.07" stroke-linecap="round" stroke-linejoin="round" stroke-miterlimit="10" x1="17.6" y1="63.6" x2="17.6" y2="29.7"/>
	
		<line stroke="#00BEC3" stroke-width="1.07" stroke-linecap="round" stroke-linejoin="round" stroke-miterlimit="10" x1="17.6" y1="29.7" x2="31.4" y2="29.7"/>
	
		<line fill="#00BEC3" stroke="#F6766D" stroke-width="1.07" stroke-linecap="round" stroke-linejoin="round" stroke-miterlimit="10" x1="17.6" y1="46.6" x2="2.7" y2="46.6"/>
	
		<line stroke="#F6766D" stroke-width="1.07" stroke-linecap="round" stroke-linejoin="round" stroke-miterlimit="10" x1="2.7" y1="46.6" x2="2.7" y2="110.2"/>
	
		<line stroke="#F6766D" stroke-width="1.07" stroke-linecap="round" stroke-linejoin="round" stroke-miterlimit="10" x1="2.7" y1="110.2" x2="17.6" y2="110.2"/>
	
		<line stroke="#F6766D" stroke-width="1.07" stroke-linecap="round" stroke-linejoin="round" stroke-miterlimit="10" x1="59.9" y1="21.2" x2="31.4" y2="21.2"/>
	
		<line stroke="#F6766D" stroke-width="1.07" stroke-linecap="round" stroke-linejoin="round" stroke-miterlimit="10" x1="31.4" y1="21.2" x2="31.4" y2="38.1"/>
	
		<line stroke="#F6766D" stroke-width="1.07" stroke-linecap="round" stroke-linejoin="round" stroke-miterlimit="10" x1="31.4" y1="38.1" x2="59.9" y2="38.1"/>
	
		<line stroke="#00BEC3" stroke-width="1.07" stroke-linecap="round" stroke-linejoin="round" stroke-miterlimit="10" x1="59.9" y1="55.1" x2="39.1" y2="55.1"/>
	
		<line stroke="#00BEC3" stroke-width="1.07" stroke-linecap="round" stroke-linejoin="round" stroke-miterlimit="10" x1="39.1" y1="55.1" x2="39.1" y2="72"/>
	
		<line stroke="#00BEC3" stroke-width="1.07" stroke-linecap="round" stroke-linejoin="round" stroke-miterlimit="10" x1="39.1" y1="72" x2="59.9" y2="72"/>
	
		<line stroke="#00BEC3" stroke-width="1.07" stroke-linecap="round" stroke-linejoin="round" stroke-miterlimit="10" x1="17.6" y1="97.5" x2="45.6" y2="97.5"/>
	<path fill="#F6766D" d="M5.5,78.3c0-1.5-1.2-2.8-2.8-2.8c-1.5,0-2.8,1.3-2.8,2.8c0,1.5,1.2,2.8,2.8,2.8C4.3,81.1,5.5,79.9,5.5,78.3
		"/>
	<path fill="#F6766D" d="M143,111.6c0-1.5-1.2-2.8-2.8-2.8c-1.5,0-2.8,1.3-2.8,2.8c0,1.5,1.2,2.8,2.8,2.8
		C141.7,114.3,143,113.1,143,111.6"/>
	<path fill="#F6766D" d="M34.2,28.9c0-1.5-1.2-2.8-2.8-2.8s-2.8,1.2-2.8,2.8c0,1.5,1.2,2.8,2.8,2.8S34.2,30.5,34.2,28.9"/>
	<path fill="#999999" d="M62.6,21.2c0-1.5-1.2-2.8-2.8-2.8c-1.5,0-2.8,1.2-2.8,2.8c0,1.5,1.2,2.8,2.8,2.8
		C61.4,23.9,62.6,22.7,62.6,21.2"/>
	<path fill="#999999" d="M62.6,38.1c0-1.5-1.2-2.8-2.8-2.8c-1.5,0-2.8,1.2-2.8,2.8s1.2,2.8,2.8,2.8C61.4,40.9,62.6,39.6,62.6,38.1"
		/>
	<path fill="#999999" d="M62.6,55.1c0-1.5-1.2-2.8-2.8-2.8c-1.5,0-2.8,1.2-2.8,2.8s1.2,2.8,2.8,2.8C61.4,57.9,62.6,56.6,62.6,55.1"
		/>
	<path fill="#999999" d="M62.6,72c0-1.5-1.2-2.8-2.8-2.8c-1.5,0-2.8,1.2-2.8,2.8c0,1.5,1.2,2.8,2.8,2.8C61.4,74.8,62.6,73.6,62.6,72
		"/>
	<path fill="#999999" d="M62.6,88.7c0-1.5-1.2-2.8-2.8-2.8c-1.5,0-2.8,1.2-2.8,2.8c0,1.5,1.2,2.8,2.8,2.8
		C61.4,91.4,62.6,90.2,62.6,88.7"/>
	<path fill="#999999" d="M62.6,105.6c0-1.5-1.2-2.8-2.8-2.8c-1.5,0-2.8,1.2-2.8,2.8c0,1.5,1.2,2.8,2.8,2.8
		C61.4,108.4,62.6,107.1,62.6,105.6"/>
	<path fill="#999999" d="M62.6,122.9c0-1.5-1.2-2.8-2.8-2.8c-1.5,0-2.8,1.2-2.8,2.8c0,1.5,1.2,2.8,2.8,2.8
		C61.4,125.7,62.6,124.4,62.6,122.9"/>
	<path fill="#00BEC3" d="M20.4,110.1c0-1.5-1.2-2.8-2.8-2.8s-2.8,1.2-2.8,2.8c0,1.5,1.2,2.8,2.8,2.8S20.4,111.7,20.4,110.1"/>
	<path fill="#00BEC3" d="M143,99.1c0-1.5-1.2-2.8-2.8-2.8s-2.8,1.2-2.8,2.8c0,1.5,1.2,2.8,2.8,2.8S143,100.6,143,99.1"/>
	<path fill="#00BEC3" d="M48.3,97.4c0-1.5-1.2-2.8-2.8-2.8s-2.8,1.2-2.8,2.8c0,1.5,1.2,2.8,2.8,2.8S48.3,99,48.3,97.4"/>
	<path fill="#00BEC3" d="M20.4,46.5c0-1.5-1.2-2.8-2.8-2.8s-2.8,1.2-2.8,2.8c0,1.5,1.2,2.8,2.8,2.8S20.4,48.1,20.4,46.5"/>
	<path fill="#00BEC3" d="M41.9,63.6c0-1.5-1.2-2.8-2.8-2.8s-2.8,1.2-2.8,2.8s1.2,2.8,2.8,2.8S41.9,65.1,41.9,63.6"/>
</g>
<g id="arrows">
</g>
</svg>
